<svg id="Capa_1" enable-background="new 0 0 512 512" height="512" viewBox="0 0 512 512" width="512" xmlns="http://www.w3.org/2000/svg"><g><path d="m467 271h15v15h-15z"/><path d="m415.806 96.194c-42.686-42.686-99.439-66.194-159.806-66.194v15c116.346 0 211 94.654 211 211h15c0-60.366-23.508-117.12-66.194-159.806z"/><path d="m75 259.869v-3.869c0-99.804 81.196-181 181-181s181 81.196 181 181c0 45.654-17.058 89.26-48.031 122.785l11.018 10.18c33.541-36.306 52.013-83.527 52.013-132.965 0-108.074-87.925-196-196-196-106.775 0-193.882 85.816-195.962 192.104l-22.538 16.029-22.47-15.98c.947-60.241 24.122-117.399 65.5-161.336l-10.919-10.284c-44.889 47.663-69.611 109.979-69.611 175.467v3.869l37.5 26.67z"/><path d="m437.019 74.98c-48.352-48.351-112.639-74.98-181.019-74.98-65.485 0-127.8 24.722-175.467 69.611l10.284 10.92c44.872-42.259 103.536-65.531 165.183-65.531 132.888 0 241 108.112 241 241 0 127.899-100.145 232.849-226.141 240.547l15.68-22.047-16.363-23.008c44.237-3.179 85.972-21.185 118.788-51.505l-10.179-11.018c-33.522 30.973-77.128 48.031-122.785 48.031h-14.537l26.669 37.5-26.669 37.5h14.537c68.38 0 132.667-26.629 181.019-74.98 48.352-48.353 74.981-112.64 74.981-181.02s-26.629-132.667-74.981-181.02z"/><path d="m204.511 364.598h-14.296v-22.852h-15v60.703h15v-22.851h14.296v22.851h15v-60.703h-15z"/><path d="m7.5 356.746h53.858v30.703h-53.858v60.703h68.858v-15h-53.858v-30.703h53.858v-60.703h-68.858z"/><path d="m145.215 387.449h-38.858v-45.703h-15v60.703h53.858v45.702h15v-106.405h-15z"/><path d="m286 256c0-5.556-1.524-10.76-4.167-15.227l66.949-66.949-10.606-10.607-66.95 66.949c-4.466-2.643-9.67-4.166-15.226-4.166s-10.76 1.523-15.226 4.166l-38.784-38.783-10.606 10.607 38.783 38.783c-2.644 4.467-4.167 9.671-4.167 15.227 0 16.542 13.458 30 30 30s30-13.458 30-30zm-45 0c0-8.271 6.729-15 15-15s15 6.729 15 15-6.729 15-15 15-15-6.729-15-15z"/><path d="m407 248.5h15v15h-15z"/><path d="m360.577 136.423h14.999v15h-14.999z" transform="matrix(.707 -.707 .707 .707 6.031 302.407)"/><path d="m136.423 136.424h15v14.999h-15z" transform="matrix(.707 -.707 .707 .707 -59.615 143.923)"/><path d="m90 248.5h15v15h-15z"/><path d="m248.5 407h15v15h-15z"/><path d="m360.577 360.577h15v14.999h-15z" transform="matrix(.707 -.707 .707 .707 -152.462 368.101)"/><path d="m248.5 90h15v15h-15z"/></g></svg>