<?xml version="1.0"?>
<svg xmlns="http://www.w3.org/2000/svg" width="512" height="512" viewBox="0 0 512 512"><g><path d="M120,416a24,24,0,1,0-24-24A24.028,24.028,0,0,0,120,416Zm0-32a8,8,0,1,1-8,8A8.009,8.009,0,0,1,120,384Z"/><path d="M400,368a24,24,0,1,0,24,24A24.028,24.028,0,0,0,400,368Zm0,32a8,8,0,1,1,8-8A8.009,8.009,0,0,1,400,400Z"/><path d="M480,128H456V72a8,8,0,0,0-8-8H216a8,8,0,0,0-8,8v56H184a8,8,0,0,0-8,8v24H96a8.019,8.019,0,0,0-6.95,4.03l-64,112A8.017,8.017,0,0,0,24,280V392a8,8,0,0,0,8,8H72.68a48.066,48.066,0,0,0,20.83,32H16a8,8,0,0,0,0,16H464a8,8,0,0,0,0-16H426.49a48.066,48.066,0,0,0,20.83-32H480a8,8,0,0,0,8-8V136A8,8,0,0,0,480,128ZM224,80H440V192H224ZM86.93,200H144v72H45.79ZM40,312H56a8,8,0,0,1,0,16H40Zm32.68,72H40V344H56a24,24,0,0,0,0-48H40v-8H152a8,8,0,0,0,8-8V192a8,8,0,0,0-8-8H96.07l4.57-8H176V384h-8.68a47.99,47.99,0,0,0-94.64,0ZM120,424a32,32,0,1,1,32-32A32.042,32.042,0,0,1,120,424Zm26.49,8a48.066,48.066,0,0,0,20.83-32H352.68a48.066,48.066,0,0,0,20.83,32ZM400,424a32,32,0,1,1,32-32A32.042,32.042,0,0,1,400,424Zm72-40H447.32a47.99,47.99,0,0,0-94.64,0H192V328H472Zm0-72H192V144h16v56a8,8,0,0,0,8,8H448a8,8,0,0,0,8-8V144h16Z"/><path d="M496,432h-8a8,8,0,0,0,0,16h8a8,8,0,0,0,0-16Z"/><path d="M304,160h8v8a8,8,0,0,0,8,8h32a8,8,0,0,0,8-8v-8h8a8,8,0,0,0,8-8V120a8,8,0,0,0-8-8h-8v-8a8,8,0,0,0-8-8H320a8,8,0,0,0-8,8v8h-8a8,8,0,0,0-8,8v32A8,8,0,0,0,304,160Zm8-32h8a8,8,0,0,0,8-8v-8h16v8a8,8,0,0,0,8,8h8v16h-8a8,8,0,0,0-8,8v8H328v-8a8,8,0,0,0-8-8h-8Z"/></g></svg>
