<svg id="_x33_0" enable-background="new 0 0 64 64" height="512" viewBox="0 0 64 64" width="512" xmlns="http://www.w3.org/2000/svg"><g><path d="m16 43c-1.654 0-3 1.346-3 3s1.346 3 3 3 3-1.346 3-3-1.346-3-3-3zm0 4c-.551 0-1-.449-1-1s.449-1 1-1 1 .449 1 1-.449 1-1 1z"/><path d="m45 43c-1.654 0-3 1.346-3 3s1.346 3 3 3 3-1.346 3-3-1.346-3-3-3zm0 4c-.551 0-1-.449-1-1s.449-1 1-1 1 .449 1 1-.449 1-1 1z"/><path d="m58 15h-24c-2.757 0-5 2.243-5 5v3h-2v-2c0-1.103-.897-2-2-2h-6c-1.103 0-2 .897-2 2v2h-.396c-2.587 0-4.875 1.649-5.692 4.103l-1.687 5.061-5.195 1.298c-1.784.445-3.03 2.041-3.03 3.88v9.658c0 1.103.897 2 2 2h6.685c1.126 2.361 3.53 4 6.315 4s5.189-1.639 6.315-4h16.37c1.126 2.361 3.53 4 6.315 4s5.189-1.639 6.315-4h9.685c1.103 0 2-.897 2-2v-27c0-2.757-2.243-5-5-5zm-8.11 26h11.11v2h-9.685c-.357-.749-.839-1.426-1.425-2zm-18.89-2v-2h30v2zm0 2h9.11c-.587.574-1.068 1.251-1.425 2h-7.685zm0-6v-14h30v14zm3-18h24c1.302 0 2.402.839 2.816 2h-29.632c.414-1.161 1.514-2 2.816-2zm-15 4h6v2h-6zm-14.485 14.402 5.195-1.299c.667-.167 1.195-.656 1.413-1.308l1.687-5.06c.544-1.636 2.069-2.735 3.794-2.735h12.396v18h-2v-13c0-1.654-1.346-3-3-3h-6.559c-1.293 0-2.437.824-2.846 2.051l-1.492 4.478c-.068.204-.103.417-.103.633v5.523c-1.45.692-2.623 1.865-3.315 3.315h-2.685v-2c0-1.103-.897-2-2-2h-2v-1.658c0-.919.623-1.717 1.515-1.94zm11.485 3.598c-.34 0-.672.033-1 .08v-4.08h10v8h-2.685c-1.126-2.361-3.53-4-6.315-4zm9-6h-9.612l1.105-3.316c.136-.409.517-.684.948-.684h6.559c.551 0 1 .449 1 1zm-20 10h-2v-2h2zm-2 4v-2h6.08c-.047.328-.08.66-.08 1s.033.672.08 1zm13 4c-2.757 0-5-2.243-5-5s2.243-5 5-5 5 2.243 5 5-2.243 5-5 5zm6.92-4c.047-.328.08-.66.08-1s-.033-.672-.08-1h15.16c-.047.328-.08.66-.08 1s.033.672.08 1zm22.08 4c-2.757 0-5-2.243-5-5s2.243-5 5-5 5 2.243 5 5-2.243 5-5 5zm6.92-4c.047-.328.08-.66.08-1s-.033-.672-.08-1h9.08v2z"/><path d="m35 23v10h22v-10zm20 8h-18v-6h18z"/><path d="m21 11h2v4h-2z"/><path d="m16.5 12.379h2v4.243h-2z" transform="matrix(.707 -.707 .707 .707 -5.127 16.621)"/><path d="m24.379 13.5h4.243v2h-4.243z" transform="matrix(.707 -.707 .707 .707 -2.491 22.985)"/></g></svg>