<svg height="512" viewBox="0 0 60 60" width="512" xmlns="http://www.w3.org/2000/svg"><g id="Page-1" fill="none" fill-rule="evenodd"><g id="044---Online-Doctor-Advice" fill="rgb(0,0,0)" fill-rule="nonzero"><path id="Shape" d="m58 48v-35c-.0066119-2.4313886-1.7613243-4.50556163-4.158-4.915-.3942354-1.23828175-1.5424829-2.08068012-2.842-2.085h-6v-2c0-2.209139-1.790861-4-4-4h-22c-2.209139 0-4 1.790861-4 4v2h-6c-1.29951706.00431988-2.44776461.84671825-2.842 2.085-2.39667574.40943837-4.15138812 2.4836114-4.158 4.915v35c-1.1045695 0-2 .8954305-2 2v3c.00440864 3.8641657 3.13583434 6.9955914 7 7h46c3.8641657-.0044086 6.9955914-3.1358343 7-7v-3c0-1.1045695-.8954305-2-2-2zm-50-32h7v6c0 2.209139 1.790861 4 4 4h3.45l5.081 8h-6.531c-.5522847 0-1 .4477153-1 1s.4477153 1 1 1h18c.5522847 0 1-.4477153 1-1s-.4477153-1-1-1h-6.531l5.081-8h3.45c2.209139 0 4-1.790861 4-4v-6h7v27c0 .5522847-.4477153 1-1 1h-42c-.55228475 0-1-.4477153-1-1zm43-8c.5522847 0 1 .44771525 1 1v5h-7v-6zm-34-4c0-1.1045695.8954305-2 2-2h22c1.1045695 0 2 .8954305 2 2v18c0 1.1045695-.8954305 2-2 2h-9c-.5522847 0-1 .4477153-1 1s.4477153 1 1 1h3.18l-5.026 7.916c-.0337464.0519914-.0915167.0833669-.1535.0833669s-.1197536-.0313755-.1535-.0833669l-5.027-7.916h3.18c.5522847 0 1-.4477153 1-1s-.4477153-1-1-1h-9c-1.1045695 0-2-.8954305-2-2zm-8 4h6v6h-7v-5c0-.55228475.44771525-1 1-1zm-5 5c.00525139-1.2667854.80564913-2.3937454 2-2.816v32.816c0 1.6568542 1.34314575 3 3 3h42c1.6568542 0 3-1.3431458 3-3v-32.816c1.1943509.4222546 1.9947486 1.5492146 2 2.816v35h-52zm17 37h18v1c0 1.1045695-.8954305 2-2 2h-14c-1.1045695 0-2-.8954305-2-2zm37 3c-.0033061 2.7600532-2.2399468 4.9966939-5 5h-46c-2.76005315-.0033061-4.99669388-2.2399468-5-5v-3h17v1c0 2.209139 1.790861 4 4 4h14c2.209139 0 4-1.790861 4-4v-1h17z"/><path id="Shape" d="m15 52h-2c-.5522847 0-1 .4477153-1 1s.4477153 1 1 1h2c.5522847 0 1-.4477153 1-1s-.4477153-1-1-1z"/><circle id="Oval" cx="5" cy="53" r="1"/><circle id="Oval" cx="9" cy="53" r="1"/><circle id="Oval" cx="12" cy="11" r="1"/><path id="Shape" d="m24 17h2v2c0 1.1045695.8954305 2 2 2h4c1.1045695 0 2-.8954305 2-2v-2h2c1.1045695 0 2-.8954305 2-2v-4c0-1.1045695-.8954305-2-2-2h-2v-2c0-1.1045695-.8954305-2-2-2h-4c-1.1045695 0-2 .8954305-2 2v2h-2c-1.1045695 0-2 .8954305-2 2v4c0 1.1045695.8954305 2 2 2zm0-6h2c1.1045695 0 2-.8954305 2-2v-2h4v2c0 1.1045695.8954305 2 2 2h2v4h-2c-1.1045695 0-2 .8954305-2 2v2h-4v-2c0-1.1045695-.8954305-2-2-2h-2z"/><path id="Shape" d="m21 40h10c.5522847 0 1-.4477153 1-1s-.4477153-1-1-1h-10c-.5522847 0-1 .4477153-1 1s.4477153 1 1 1z"/><circle id="Oval" cx="35" cy="39" r="1"/></g></g></svg>